<svg width="344" height="126" viewBox="0 0 344 126" fill="none" xmlns="http://www.w3.org/2000/svg">
<g clip-path="url(#clip0_4103_550)">
<path d="M17 8V24H27V8H17ZM16 6H28C28.2652 6 28.5196 6.10536 28.7071 6.29289C28.8946 6.48043 29 6.73478 29 7V25C29 25.2652 28.8946 25.5196 28.7071 25.7071C28.5196 25.8946 28.2652 26 28 26H16C15.7348 26 15.4804 25.8946 15.2929 25.7071C15.1054 25.5196 15 25.2652 15 25V7C15 6.73478 15.1054 6.48043 15.2929 6.29289C15.4804 6.10536 15.7348 6 16 6ZM22 21C22.2652 21 22.5196 21.1054 22.7071 21.2929C22.8946 21.4804 23 21.7348 23 22C23 22.2652 22.8946 22.5196 22.7071 22.7071C22.5196 22.8946 22.2652 23 22 23C21.7348 23 21.4804 22.8946 21.2929 22.7071C21.1054 22.5196 21 22.2652 21 22C21 21.7348 21.1054 21.4804 21.2929 21.2929C21.4804 21.1054 21.7348 21 22 21Z" fill="#EB5757"/>
</g>
<g clip-path="url(#clip1_4103_550)">
<path d="M51.0859 12.0781C52.5599 12.0781 53.6354 12.3958 54.3125 13.0312C54.9896 13.6615 55.3281 14.5312 55.3281 15.6406C55.3281 16.1406 55.2526 16.6198 55.1016 17.0781C54.9505 17.5312 54.7031 17.9349 54.3594 18.2891C54.0208 18.6432 53.5677 18.9245 53 19.1328C52.4323 19.3359 51.7318 19.4375 50.8984 19.4375H49.8594V23.5H47.4375V12.0781H51.0859ZM50.9609 14.0625H49.8594V17.4531H50.6562C51.1094 17.4531 51.5026 17.3932 51.8359 17.2734C52.1693 17.1536 52.4271 16.9661 52.6094 16.7109C52.7917 16.4557 52.8828 16.1276 52.8828 15.7266C52.8828 15.1641 52.7266 14.7474 52.4141 14.4766C52.1016 14.2005 51.6172 14.0625 50.9609 14.0625ZM59.6797 11.3438V13.8203C59.6797 14.2526 59.6641 14.6641 59.6328 15.0547C59.6068 15.4453 59.5859 15.7214 59.5703 15.8828H59.6953C59.8828 15.5807 60.1042 15.3359 60.3594 15.1484C60.6198 14.9609 60.9062 14.8229 61.2188 14.7344C61.5312 14.6458 61.8672 14.6016 62.2266 14.6016C62.8568 14.6016 63.4062 14.7135 63.875 14.9375C64.3438 15.1562 64.7083 15.5026 64.9688 15.9766C65.2292 16.4453 65.3594 17.0547 65.3594 17.8047V23.5H62.9766V18.3984C62.9766 17.7734 62.862 17.3021 62.6328 16.9844C62.4036 16.6667 62.0495 16.5078 61.5703 16.5078C61.0911 16.5078 60.7135 16.6198 60.4375 16.8438C60.1615 17.0625 59.9661 17.388 59.8516 17.8203C59.737 18.2474 59.6797 18.7708 59.6797 19.3906V23.5H57.2969V11.3438H59.6797ZM75.75 19.1172C75.75 19.8464 75.651 20.4922 75.4531 21.0547C75.2604 21.6172 74.9766 22.0938 74.6016 22.4844C74.2318 22.8698 73.7839 23.1615 73.2578 23.3594C72.737 23.5573 72.1484 23.6562 71.4922 23.6562C70.8776 23.6562 70.3125 23.5573 69.7969 23.3594C69.2865 23.1615 68.8411 22.8698 68.4609 22.4844C68.0859 22.0938 67.7943 21.6172 67.5859 21.0547C67.3828 20.4922 67.2812 19.8464 67.2812 19.1172C67.2812 18.1484 67.4531 17.3281 67.7969 16.6562C68.1406 15.9844 68.6302 15.474 69.2656 15.125C69.901 14.776 70.6589 14.6016 71.5391 14.6016C72.3568 14.6016 73.0807 14.776 73.7109 15.125C74.3464 15.474 74.8438 15.9844 75.2031 16.6562C75.5677 17.3281 75.75 18.1484 75.75 19.1172ZM69.7109 19.1172C69.7109 19.6901 69.7734 20.1719 69.8984 20.5625C70.0234 20.9531 70.2188 21.2474 70.4844 21.4453C70.75 21.6432 71.0964 21.7422 71.5234 21.7422C71.9453 21.7422 72.2865 21.6432 72.5469 21.4453C72.8125 21.2474 73.0052 20.9531 73.125 20.5625C73.25 20.1719 73.3125 19.6901 73.3125 19.1172C73.3125 18.5391 73.25 18.0599 73.125 17.6797C73.0052 17.2943 72.8125 17.0052 72.5469 16.8125C72.2812 16.6198 71.9349 16.5234 71.5078 16.5234C70.8776 16.5234 70.4193 16.7396 70.1328 17.1719C69.8516 17.6042 69.7109 18.2526 69.7109 19.1172ZM82.6797 14.6016C83.612 14.6016 84.362 14.8568 84.9297 15.3672C85.4974 15.8724 85.7812 16.6849 85.7812 17.8047V23.5H83.3984V18.3984C83.3984 17.7734 83.2839 17.3021 83.0547 16.9844C82.8307 16.6667 82.4766 16.5078 81.9922 16.5078C81.263 16.5078 80.7656 16.7552 80.5 17.25C80.2344 17.7448 80.1016 18.4583 80.1016 19.3906V23.5H77.7188V14.7656H79.5391L79.8594 15.8828H79.9922C80.1797 15.5807 80.4115 15.3359 80.6875 15.1484C80.9688 14.9609 81.2786 14.8229 81.6172 14.7344C81.9609 14.6458 82.3151 14.6016 82.6797 14.6016ZM91.8359 14.6016C92.6432 14.6016 93.3385 14.7578 93.9219 15.0703C94.5052 15.3776 94.9557 15.8255 95.2734 16.4141C95.5911 17.0026 95.75 17.7214 95.75 18.5703V19.7266H90.1172C90.1432 20.3984 90.3438 20.9271 90.7188 21.3125C91.099 21.6927 91.625 21.8828 92.2969 21.8828C92.8542 21.8828 93.3646 21.8255 93.8281 21.7109C94.2917 21.5964 94.7682 21.4245 95.2578 21.1953V23.0391C94.8255 23.2526 94.3724 23.4089 93.8984 23.5078C93.4297 23.6068 92.8594 23.6562 92.1875 23.6562C91.3125 23.6562 90.5365 23.4948 89.8594 23.1719C89.1875 22.849 88.6589 22.3568 88.2734 21.6953C87.8932 21.0339 87.7031 20.2005 87.7031 19.1953C87.7031 18.1745 87.875 17.3255 88.2188 16.6484C88.5677 15.9661 89.0521 15.4557 89.6719 15.1172C90.2917 14.7734 91.013 14.6016 91.8359 14.6016ZM91.8516 16.2969C91.388 16.2969 91.0026 16.4453 90.6953 16.7422C90.3932 17.0391 90.2188 17.5052 90.1719 18.1406H93.5156C93.5104 17.7865 93.4453 17.4714 93.3203 17.1953C93.2005 16.9193 93.0182 16.7005 92.7734 16.5391C92.5339 16.3776 92.2266 16.2969 91.8516 16.2969ZM97.3516 22.3828C97.3516 21.8932 97.4844 21.5495 97.75 21.3516C98.0208 21.1536 98.3464 21.0547 98.7266 21.0547C99.0964 21.0547 99.4141 21.1536 99.6797 21.3516C99.9505 21.5495 100.086 21.8932 100.086 22.3828C100.086 22.8516 99.9505 23.1901 99.6797 23.3984C99.4141 23.6068 99.0964 23.7109 98.7266 23.7109C98.3464 23.7109 98.0208 23.6068 97.75 23.3984C97.4844 23.1901 97.3516 22.8516 97.3516 22.3828ZM97.3516 15.9297C97.3516 15.4401 97.4844 15.0964 97.75 14.8984C98.0208 14.7005 98.3464 14.6016 98.7266 14.6016C99.0964 14.6016 99.4141 14.7005 99.6797 14.8984C99.9505 15.0964 100.086 15.4401 100.086 15.9297C100.086 16.4036 99.9505 16.7448 99.6797 16.9531C99.4141 17.1562 99.0964 17.2578 98.7266 17.2578C98.3464 17.2578 98.0208 17.1562 97.75 16.9531C97.4844 16.7448 97.3516 16.4036 97.3516 15.9297Z" fill="#222222" fill-opacity="0.5"/>
<path d="M111.094 17.3281H114.312V18.3906H111.094V21.7031H110.023V18.3906H106.805V17.3281H110.023V14H111.094V17.3281ZM123.008 14.7422C123.008 15.2526 122.909 15.6953 122.711 16.0703C122.513 16.4453 122.237 16.7526 121.883 16.9922C121.529 17.2266 121.112 17.3906 120.633 17.4844V17.5469C121.539 17.6615 122.219 17.9531 122.672 18.4219C123.13 18.8906 123.359 19.5052 123.359 20.2656C123.359 20.9271 123.203 21.513 122.891 22.0234C122.583 22.5339 122.109 22.9349 121.469 23.2266C120.833 23.513 120.018 23.6562 119.023 23.6562C118.419 23.6562 117.859 23.6068 117.344 23.5078C116.833 23.4141 116.344 23.2552 115.875 23.0312V21.8125C116.349 22.0469 116.865 22.2318 117.422 22.3672C117.979 22.4974 118.518 22.5625 119.039 22.5625C120.081 22.5625 120.833 22.3568 121.297 21.9453C121.76 21.5286 121.992 20.9609 121.992 20.2422C121.992 19.7474 121.862 19.349 121.602 19.0469C121.346 18.7396 120.977 18.5156 120.492 18.375C120.013 18.2292 119.435 18.1562 118.758 18.1562H117.617V17.0469H118.766C119.385 17.0469 119.911 16.9557 120.344 16.7734C120.776 16.5911 121.104 16.3359 121.328 16.0078C121.557 15.6745 121.672 15.2812 121.672 14.8281C121.672 14.25 121.479 13.8047 121.094 13.4922C120.708 13.1745 120.185 13.0156 119.523 13.0156C119.117 13.0156 118.747 13.0573 118.414 13.1406C118.081 13.224 117.768 13.3385 117.477 13.4844C117.185 13.6302 116.893 13.7995 116.602 13.9922L115.945 13.1016C116.362 12.7786 116.87 12.5 117.469 12.2656C118.068 12.0312 118.747 11.9141 119.508 11.9141C120.674 11.9141 121.549 12.1797 122.133 12.7109C122.716 13.2422 123.008 13.9193 123.008 14.7422ZM126.578 23.5L131.266 13.2656H125.039V12.0781H132.656V13.0781L128 23.5H126.578ZM141.805 17.7734C141.805 18.7005 141.734 19.5286 141.594 20.2578C141.453 20.987 141.232 21.6042 140.93 22.1094C140.628 22.6146 140.237 23 139.758 23.2656C139.279 23.526 138.703 23.6562 138.031 23.6562C137.182 23.6562 136.479 23.4245 135.922 22.9609C135.37 22.4974 134.956 21.8281 134.68 20.9531C134.409 20.0729 134.273 19.013 134.273 17.7734C134.273 16.5547 134.396 15.5078 134.641 14.6328C134.891 13.7526 135.292 13.0781 135.844 12.6094C136.396 12.1354 137.125 11.8984 138.031 11.8984C138.891 11.8984 139.599 12.1328 140.156 12.6016C140.714 13.0651 141.128 13.737 141.398 14.6172C141.669 15.4922 141.805 16.5443 141.805 17.7734ZM135.578 17.7734C135.578 18.8359 135.659 19.7214 135.82 20.4297C135.982 21.138 136.242 21.6693 136.602 22.0234C136.966 22.3724 137.443 22.5469 138.031 22.5469C138.62 22.5469 139.094 22.3724 139.453 22.0234C139.818 21.6745 140.081 21.1458 140.242 20.4375C140.409 19.7292 140.492 18.8411 140.492 17.7734C140.492 16.7266 140.411 15.8516 140.25 15.1484C140.089 14.4401 139.828 13.9089 139.469 13.5547C139.109 13.1953 138.63 13.0156 138.031 13.0156C137.432 13.0156 136.953 13.1953 136.594 13.5547C136.234 13.9089 135.974 14.4401 135.812 15.1484C135.656 15.8516 135.578 16.7266 135.578 17.7734ZM143.531 18.6172C143.531 17.9297 143.578 17.2578 143.672 16.6016C143.771 15.9453 143.935 15.3359 144.164 14.7734C144.393 14.2057 144.706 13.7083 145.102 13.2812C145.497 12.8542 145.99 12.5208 146.578 12.2812C147.172 12.0365 147.883 11.9141 148.711 11.9141C148.945 11.9141 149.198 11.9271 149.469 11.9531C149.74 11.974 149.964 12.0104 150.141 12.0625V13.1797C149.948 13.112 149.727 13.0625 149.477 13.0312C149.232 13 148.984 12.9844 148.734 12.9844C147.766 12.9844 147.003 13.1953 146.445 13.6172C145.893 14.0391 145.495 14.612 145.25 15.3359C145.005 16.0547 144.865 16.8646 144.828 17.7656H144.914C145.076 17.5052 145.281 17.2708 145.531 17.0625C145.781 16.849 146.083 16.6797 146.438 16.5547C146.797 16.4297 147.214 16.3672 147.688 16.3672C148.354 16.3672 148.935 16.5026 149.43 16.7734C149.93 17.0443 150.315 17.4375 150.586 17.9531C150.862 18.4688 151 19.0938 151 19.8281C151 20.6146 150.854 21.2943 150.562 21.8672C150.271 22.4401 149.854 22.8828 149.312 23.1953C148.776 23.5026 148.135 23.6562 147.391 23.6562C146.833 23.6562 146.32 23.5495 145.852 23.3359C145.383 23.1224 144.974 22.8047 144.625 22.3828C144.281 21.9609 144.013 21.4375 143.82 20.8125C143.628 20.1823 143.531 19.4505 143.531 18.6172ZM147.375 22.5625C148.083 22.5625 148.651 22.3359 149.078 21.8828C149.505 21.4297 149.719 20.7448 149.719 19.8281C149.719 19.0781 149.529 18.4844 149.148 18.0469C148.768 17.6094 148.195 17.3906 147.43 17.3906C146.909 17.3906 146.456 17.5 146.07 17.7188C145.685 17.9323 145.385 18.2031 145.172 18.5312C144.958 18.8594 144.852 19.1927 144.852 19.5312C144.852 19.875 144.901 20.224 145 20.5781C145.104 20.9323 145.26 21.2604 145.469 21.5625C145.677 21.8646 145.94 22.1068 146.258 22.2891C146.576 22.4714 146.948 22.5625 147.375 22.5625ZM152.688 18.6172C152.688 17.9297 152.734 17.2578 152.828 16.6016C152.927 15.9453 153.091 15.3359 153.32 14.7734C153.549 14.2057 153.862 13.7083 154.258 13.2812C154.654 12.8542 155.146 12.5208 155.734 12.2812C156.328 12.0365 157.039 11.9141 157.867 11.9141C158.102 11.9141 158.354 11.9271 158.625 11.9531C158.896 11.974 159.12 12.0104 159.297 12.0625V13.1797C159.104 13.112 158.883 13.0625 158.633 13.0312C158.388 13 158.141 12.9844 157.891 12.9844C156.922 12.9844 156.159 13.1953 155.602 13.6172C155.049 14.0391 154.651 14.612 154.406 15.3359C154.161 16.0547 154.021 16.8646 153.984 17.7656H154.07C154.232 17.5052 154.438 17.2708 154.688 17.0625C154.938 16.849 155.24 16.6797 155.594 16.5547C155.953 16.4297 156.37 16.3672 156.844 16.3672C157.51 16.3672 158.091 16.5026 158.586 16.7734C159.086 17.0443 159.471 17.4375 159.742 17.9531C160.018 18.4688 160.156 19.0938 160.156 19.8281C160.156 20.6146 160.01 21.2943 159.719 21.8672C159.427 22.4401 159.01 22.8828 158.469 23.1953C157.932 23.5026 157.292 23.6562 156.547 23.6562C155.99 23.6562 155.477 23.5495 155.008 23.3359C154.539 23.1224 154.13 22.8047 153.781 22.3828C153.438 21.9609 153.169 21.4375 152.977 20.8125C152.784 20.1823 152.688 19.4505 152.688 18.6172ZM156.531 22.5625C157.24 22.5625 157.807 22.3359 158.234 21.8828C158.661 21.4297 158.875 20.7448 158.875 19.8281C158.875 19.0781 158.685 18.4844 158.305 18.0469C157.924 17.6094 157.352 17.3906 156.586 17.3906C156.065 17.3906 155.612 17.5 155.227 17.7188C154.841 17.9323 154.542 18.2031 154.328 18.5312C154.115 18.8594 154.008 19.1927 154.008 19.5312C154.008 19.875 154.057 20.224 154.156 20.5781C154.26 20.9323 154.417 21.2604 154.625 21.5625C154.833 21.8646 155.096 22.1068 155.414 22.2891C155.732 22.4714 156.104 22.5625 156.531 22.5625ZM165.336 16.5156C166.112 16.5156 166.786 16.6484 167.359 16.9141C167.932 17.1745 168.375 17.5547 168.688 18.0547C169.005 18.5547 169.164 19.1615 169.164 19.875C169.164 20.6562 168.995 21.3307 168.656 21.8984C168.318 22.4609 167.831 22.8958 167.195 23.2031C166.56 23.5052 165.799 23.6562 164.914 23.6562C164.32 23.6562 163.768 23.6042 163.258 23.5C162.747 23.3958 162.318 23.2396 161.969 23.0312V21.7969C162.349 22.026 162.81 22.2083 163.352 22.3438C163.893 22.4792 164.419 22.5469 164.93 22.5469C165.508 22.5469 166.013 22.4557 166.445 22.2734C166.883 22.0859 167.221 21.8047 167.461 21.4297C167.706 21.0495 167.828 20.5729 167.828 20C167.828 19.2396 167.594 18.6536 167.125 18.2422C166.661 17.8255 165.927 17.6172 164.922 17.6172C164.599 17.6172 164.245 17.6432 163.859 17.6953C163.474 17.7474 163.156 17.8047 162.906 17.8672L162.25 17.4375L162.688 12.0781H168.367V13.2656H163.797L163.508 16.7109C163.706 16.6693 163.961 16.6276 164.273 16.5859C164.586 16.5391 164.94 16.5156 165.336 16.5156ZM172.359 23.5L177.047 13.2656H170.82V12.0781H178.438V13.0781L173.781 23.5H172.359ZM188.094 20.8516H186.383V23.5H185.117V20.8516H179.594V19.7578L185.031 12.0156H186.383V19.6797H188.094V20.8516ZM185.117 19.6797V15.9453C185.117 15.6589 185.12 15.401 185.125 15.1719C185.13 14.9375 185.138 14.7214 185.148 14.5234C185.159 14.3203 185.167 14.1276 185.172 13.9453C185.182 13.763 185.19 13.5833 185.195 13.4062H185.133C185.034 13.6146 184.919 13.8359 184.789 14.0703C184.664 14.2995 184.536 14.5052 184.406 14.6875L180.883 19.6797H185.117ZM196.695 16.9453C196.695 17.638 196.646 18.3125 196.547 18.9688C196.453 19.625 196.289 20.237 196.055 20.8047C195.826 21.3724 195.513 21.8698 195.117 22.2969C194.721 22.724 194.224 23.0599 193.625 23.3047C193.031 23.5443 192.32 23.6641 191.492 23.6641C191.268 23.6641 191.013 23.6484 190.727 23.6172C190.44 23.5911 190.206 23.5521 190.023 23.5V22.375C190.216 22.4427 190.443 22.4974 190.703 22.5391C190.964 22.5755 191.219 22.5938 191.469 22.5938C192.443 22.5938 193.208 22.3854 193.766 21.9688C194.323 21.5469 194.724 20.9766 194.969 20.2578C195.214 19.5339 195.352 18.7214 195.383 17.8203H195.289C195.133 18.0703 194.927 18.3021 194.672 18.5156C194.422 18.724 194.117 18.8932 193.758 19.0234C193.398 19.1484 192.979 19.2109 192.5 19.2109C191.839 19.2109 191.26 19.0755 190.766 18.8047C190.276 18.5339 189.893 18.1406 189.617 17.625C189.346 17.1094 189.211 16.487 189.211 15.7578C189.211 14.9714 189.359 14.2917 189.656 13.7188C189.958 13.1406 190.38 12.6953 190.922 12.3828C191.464 12.0703 192.102 11.9141 192.836 11.9141C193.398 11.9141 193.914 12.0208 194.383 12.2344C194.852 12.4479 195.258 12.7682 195.602 13.1953C195.951 13.6172 196.219 14.1406 196.406 14.7656C196.599 15.3906 196.695 16.1172 196.695 16.9453ZM192.836 13.0156C192.143 13.0156 191.581 13.2422 191.148 13.6953C190.721 14.1484 190.508 14.8307 190.508 15.7422C190.508 16.4974 190.693 17.0938 191.062 17.5312C191.432 17.9688 192.003 18.1875 192.773 18.1875C193.305 18.1875 193.763 18.0807 194.148 17.8672C194.539 17.6536 194.839 17.3828 195.047 17.0547C195.26 16.7266 195.367 16.3906 195.367 16.0469C195.367 15.7031 195.315 15.3542 195.211 15C195.112 14.6458 194.958 14.3203 194.75 14.0234C194.542 13.7214 194.279 13.4792 193.961 13.2969C193.643 13.1094 193.268 13.0156 192.836 13.0156ZM201.961 16.5156C202.737 16.5156 203.411 16.6484 203.984 16.9141C204.557 17.1745 205 17.5547 205.312 18.0547C205.63 18.5547 205.789 19.1615 205.789 19.875C205.789 20.6562 205.62 21.3307 205.281 21.8984C204.943 22.4609 204.456 22.8958 203.82 23.2031C203.185 23.5052 202.424 23.6562 201.539 23.6562C200.945 23.6562 200.393 23.6042 199.883 23.5C199.372 23.3958 198.943 23.2396 198.594 23.0312V21.7969C198.974 22.026 199.435 22.2083 199.977 22.3438C200.518 22.4792 201.044 22.5469 201.555 22.5469C202.133 22.5469 202.638 22.4557 203.07 22.2734C203.508 22.0859 203.846 21.8047 204.086 21.4297C204.331 21.0495 204.453 20.5729 204.453 20C204.453 19.2396 204.219 18.6536 203.75 18.2422C203.286 17.8255 202.552 17.6172 201.547 17.6172C201.224 17.6172 200.87 17.6432 200.484 17.6953C200.099 17.7474 199.781 17.8047 199.531 17.8672L198.875 17.4375L199.312 12.0781H204.992V13.2656H200.422L200.133 16.7109C200.331 16.6693 200.586 16.6276 200.898 16.5859C201.211 16.5391 201.565 16.5156 201.961 16.5156ZM215.008 16.9453C215.008 17.638 214.958 18.3125 214.859 18.9688C214.766 19.625 214.602 20.237 214.367 20.8047C214.138 21.3724 213.826 21.8698 213.43 22.2969C213.034 22.724 212.536 23.0599 211.938 23.3047C211.344 23.5443 210.633 23.6641 209.805 23.6641C209.581 23.6641 209.326 23.6484 209.039 23.6172C208.753 23.5911 208.518 23.5521 208.336 23.5V22.375C208.529 22.4427 208.755 22.4974 209.016 22.5391C209.276 22.5755 209.531 22.5938 209.781 22.5938C210.755 22.5938 211.521 22.3854 212.078 21.9688C212.635 21.5469 213.036 20.9766 213.281 20.2578C213.526 19.5339 213.664 18.7214 213.695 17.8203H213.602C213.445 18.0703 213.24 18.3021 212.984 18.5156C212.734 18.724 212.43 18.8932 212.07 19.0234C211.711 19.1484 211.292 19.2109 210.812 19.2109C210.151 19.2109 209.573 19.0755 209.078 18.8047C208.589 18.5339 208.206 18.1406 207.93 17.625C207.659 17.1094 207.523 16.487 207.523 15.7578C207.523 14.9714 207.672 14.2917 207.969 13.7188C208.271 13.1406 208.693 12.6953 209.234 12.3828C209.776 12.0703 210.414 11.9141 211.148 11.9141C211.711 11.9141 212.227 12.0208 212.695 12.2344C213.164 12.4479 213.57 12.7682 213.914 13.1953C214.263 13.6172 214.531 14.1406 214.719 14.7656C214.911 15.3906 215.008 16.1172 215.008 16.9453ZM211.148 13.0156C210.456 13.0156 209.893 13.2422 209.461 13.6953C209.034 14.1484 208.82 14.8307 208.82 15.7422C208.82 16.4974 209.005 17.0938 209.375 17.5312C209.745 17.9688 210.315 18.1875 211.086 18.1875C211.617 18.1875 212.076 18.0807 212.461 17.8672C212.852 17.6536 213.151 17.3828 213.359 17.0547C213.573 16.7266 213.68 16.3906 213.68 16.0469C213.68 15.7031 213.628 15.3542 213.523 15C213.424 14.6458 213.271 14.3203 213.062 14.0234C212.854 13.7214 212.591 13.4792 212.273 13.2969C211.956 13.1094 211.581 13.0156 211.148 13.0156Z" fill="#222222" fill-opacity="0.5"/>
</g>
<g clip-path="url(#clip2_4103_550)">
<path d="M22 70.8999L26.95 65.9499C27.9289 64.9709 28.5955 63.7236 28.8656 62.3658C29.1356 61.0079 28.9969 59.6005 28.4671 58.3215C27.9373 57.0424 27.04 55.9492 25.8889 55.1801C24.7378 54.411 23.3844 54.0004 22 54.0004C20.6156 54.0004 19.2622 54.411 18.1111 55.1801C16.96 55.9492 16.0628 57.0424 15.5329 58.3215C15.0031 59.6005 14.8644 61.0079 15.1345 62.3658C15.4045 63.7236 16.0711 64.9709 17.05 65.9499L22 70.8999ZM22 73.7279L15.636 67.3639C14.3773 66.1052 13.5202 64.5016 13.1729 62.7558C12.8257 61.0099 13.0039 59.2004 13.6851 57.5558C14.3663 55.9113 15.5198 54.5057 16.9999 53.5168C18.4799 52.5278 20.22 52 22 52C23.78 52 25.5201 52.5278 27.0001 53.5168C28.4802 54.5057 29.6337 55.9113 30.3149 57.5558C30.9961 59.2004 31.1743 61.0099 30.8271 62.7558C30.4798 64.5016 29.6227 66.1052 28.364 67.3639L22 73.7279ZM22 62.9999C22.5304 62.9999 23.0391 62.7892 23.4142 62.4141C23.7893 62.0391 24 61.5304 24 60.9999C24 60.4695 23.7893 59.9608 23.4142 59.5857C23.0391 59.2106 22.5304 58.9999 22 58.9999C21.4696 58.9999 20.9609 59.2106 20.5858 59.5857C20.2107 59.9608 20 60.4695 20 60.9999C20 61.5304 20.2107 62.0391 20.5858 62.4141C20.9609 62.7892 21.4696 62.9999 22 62.9999ZM22 64.9999C20.9391 64.9999 19.9217 64.5785 19.1716 63.8283C18.4214 63.0782 18 62.0608 18 60.9999C18 59.9391 18.4214 58.9216 19.1716 58.1715C19.9217 57.4213 20.9391 56.9999 22 56.9999C23.0609 56.9999 24.0783 57.4213 24.8284 58.1715C25.5786 58.9216 26 59.9391 26 60.9999C26 62.0608 25.5786 63.0782 24.8284 63.8283C24.0783 64.5785 23.0609 64.9999 22 64.9999Z" fill="#EB5757"/>
</g>
<g clip-path="url(#clip3_4103_550)">
<path d="M54.4297 69.5L53.6016 66.7812H49.4375L48.6094 69.5H46L50.0312 58.0312H52.9922L57.0391 69.5H54.4297ZM53.0234 64.75L52.1953 62.0938C52.1432 61.9167 52.0729 61.6901 51.9844 61.4141C51.901 61.1328 51.8151 60.849 51.7266 60.5625C51.6432 60.2708 51.5755 60.0182 51.5234 59.8047C51.4714 60.0182 51.3984 60.2839 51.3047 60.6016C51.2161 60.9141 51.1302 61.2109 51.0469 61.4922C50.9635 61.7734 50.9036 61.974 50.8672 62.0938L50.0469 64.75H53.0234ZM61.0625 69.6562C60.0885 69.6562 59.2943 69.276 58.6797 68.5156C58.0703 67.75 57.7656 66.6276 57.7656 65.1484C57.7656 63.6536 58.0755 62.5234 58.6953 61.7578C59.3151 60.987 60.125 60.6016 61.125 60.6016C61.5417 60.6016 61.9089 60.6589 62.2266 60.7734C62.5443 60.888 62.8177 61.0417 63.0469 61.2344C63.2812 61.4271 63.4792 61.6432 63.6406 61.8828H63.7188C63.6875 61.7161 63.6484 61.4714 63.6016 61.1484C63.5599 60.8203 63.5391 60.4844 63.5391 60.1406V57.3438H65.9297V69.5H64.1016L63.6406 68.3672H63.5391C63.388 68.6068 63.1979 68.8255 62.9688 69.0234C62.7448 69.2161 62.4766 69.3698 62.1641 69.4844C61.8516 69.599 61.4844 69.6562 61.0625 69.6562ZM61.8984 67.7578C62.5495 67.7578 63.0078 67.5651 63.2734 67.1797C63.5443 66.7891 63.6875 66.2031 63.7031 65.4219V65.1641C63.7031 64.3151 63.5729 63.6667 63.3125 63.2188C63.0521 62.7656 62.5677 62.5391 61.8594 62.5391C61.3333 62.5391 60.9219 62.7656 60.625 63.2188C60.3281 63.6719 60.1797 64.3255 60.1797 65.1797C60.1797 66.0339 60.3281 66.6771 60.625 67.1094C60.9271 67.5417 61.3516 67.7578 61.8984 67.7578ZM71.1875 69.6562C70.2135 69.6562 69.4193 69.276 68.8047 68.5156C68.1953 67.75 67.8906 66.6276 67.8906 65.1484C67.8906 63.6536 68.2005 62.5234 68.8203 61.7578C69.4401 60.987 70.25 60.6016 71.25 60.6016C71.6667 60.6016 72.0339 60.6589 72.3516 60.7734C72.6693 60.888 72.9427 61.0417 73.1719 61.2344C73.4062 61.4271 73.6042 61.6432 73.7656 61.8828H73.8438C73.8125 61.7161 73.7734 61.4714 73.7266 61.1484C73.6849 60.8203 73.6641 60.4844 73.6641 60.1406V57.3438H76.0547V69.5H74.2266L73.7656 68.3672H73.6641C73.513 68.6068 73.3229 68.8255 73.0938 69.0234C72.8698 69.2161 72.6016 69.3698 72.2891 69.4844C71.9766 69.599 71.6094 69.6562 71.1875 69.6562ZM72.0234 67.7578C72.6745 67.7578 73.1328 67.5651 73.3984 67.1797C73.6693 66.7891 73.8125 66.2031 73.8281 65.4219V65.1641C73.8281 64.3151 73.6979 63.6667 73.4375 63.2188C73.1771 62.7656 72.6927 62.5391 71.9844 62.5391C71.4583 62.5391 71.0469 62.7656 70.75 63.2188C70.4531 63.6719 70.3047 64.3255 70.3047 65.1797C70.3047 66.0339 70.4531 66.6771 70.75 67.1094C71.0521 67.5417 71.4766 67.7578 72.0234 67.7578ZM83.4219 60.6016C83.5417 60.6016 83.6797 60.6094 83.8359 60.625C83.9974 60.6354 84.1276 60.651 84.2266 60.6719L84.0469 62.9062C83.9688 62.8802 83.8568 62.862 83.7109 62.8516C83.5703 62.8359 83.4479 62.8281 83.3438 62.8281C83.0365 62.8281 82.737 62.8672 82.4453 62.9453C82.1589 63.0234 81.901 63.151 81.6719 63.3281C81.4427 63.5 81.2604 63.7292 81.125 64.0156C80.9948 64.2969 80.9297 64.6432 80.9297 65.0547V69.5H78.5469V60.7656H80.3516L80.7031 62.2344H80.8203C80.9922 61.9375 81.2057 61.6667 81.4609 61.4219C81.7214 61.1719 82.0156 60.974 82.3438 60.8281C82.6771 60.6771 83.0365 60.6016 83.4219 60.6016ZM89.4141 60.6016C90.2214 60.6016 90.9167 60.7578 91.5 61.0703C92.0833 61.3776 92.5339 61.8255 92.8516 62.4141C93.1693 63.0026 93.3281 63.7214 93.3281 64.5703V65.7266H87.6953C87.7214 66.3984 87.9219 66.9271 88.2969 67.3125C88.6771 67.6927 89.2031 67.8828 89.875 67.8828C90.4323 67.8828 90.9427 67.8255 91.4062 67.7109C91.8698 67.5964 92.3464 67.4245 92.8359 67.1953V69.0391C92.4036 69.2526 91.9505 69.4089 91.4766 69.5078C91.0078 69.6068 90.4375 69.6562 89.7656 69.6562C88.8906 69.6562 88.1146 69.4948 87.4375 69.1719C86.7656 68.849 86.237 68.3568 85.8516 67.6953C85.4714 67.0339 85.2812 66.2005 85.2812 65.1953C85.2812 64.1745 85.4531 63.3255 85.7969 62.6484C86.1458 61.9661 86.6302 61.4557 87.25 61.1172C87.8698 60.7734 88.5911 60.6016 89.4141 60.6016ZM89.4297 62.2969C88.9661 62.2969 88.5807 62.4453 88.2734 62.7422C87.9714 63.0391 87.7969 63.5052 87.75 64.1406H91.0938C91.0885 63.7865 91.0234 63.4714 90.8984 63.1953C90.7786 62.9193 90.5964 62.7005 90.3516 62.5391C90.112 62.3776 89.8047 62.2969 89.4297 62.2969ZM101.359 66.9062C101.359 67.5 101.219 68.0026 100.938 68.4141C100.661 68.8203 100.247 69.1302 99.6953 69.3438C99.1432 69.5521 98.4557 69.6562 97.6328 69.6562C97.0234 69.6562 96.5 69.6172 96.0625 69.5391C95.6302 69.4609 95.1927 69.3307 94.75 69.1484V67.1797C95.224 67.3932 95.7318 67.5703 96.2734 67.7109C96.8203 67.8464 97.2995 67.9141 97.7109 67.9141C98.1745 67.9141 98.5052 67.8464 98.7031 67.7109C98.9062 67.5703 99.0078 67.388 99.0078 67.1641C99.0078 67.0182 98.9661 66.888 98.8828 66.7734C98.8047 66.6536 98.6328 66.5208 98.3672 66.375C98.1016 66.224 97.6849 66.0286 97.1172 65.7891C96.5703 65.5599 96.1198 65.3281 95.7656 65.0938C95.4167 64.8594 95.1562 64.5833 94.9844 64.2656C94.8177 63.9427 94.7344 63.5339 94.7344 63.0391C94.7344 62.2318 95.0469 61.625 95.6719 61.2188C96.3021 60.8073 97.1432 60.6016 98.1953 60.6016C98.737 60.6016 99.2526 60.6562 99.7422 60.7656C100.237 60.875 100.745 61.0495 101.266 61.2891L100.547 63.0078C100.115 62.8203 99.7057 62.6667 99.3203 62.5469C98.9401 62.4271 98.5521 62.3672 98.1562 62.3672C97.8073 62.3672 97.5443 62.4141 97.3672 62.5078C97.1901 62.6016 97.1016 62.7448 97.1016 62.9375C97.1016 63.0781 97.1458 63.2031 97.2344 63.3125C97.3281 63.4219 97.5052 63.5443 97.7656 63.6797C98.0312 63.8099 98.4193 63.9792 98.9297 64.1875C99.4245 64.3906 99.8542 64.6042 100.219 64.8281C100.583 65.0469 100.865 65.3203 101.062 65.6484C101.26 65.9714 101.359 66.3906 101.359 66.9062ZM109.312 66.9062C109.312 67.5 109.172 68.0026 108.891 68.4141C108.615 68.8203 108.201 69.1302 107.648 69.3438C107.096 69.5521 106.409 69.6562 105.586 69.6562C104.977 69.6562 104.453 69.6172 104.016 69.5391C103.583 69.4609 103.146 69.3307 102.703 69.1484V67.1797C103.177 67.3932 103.685 67.5703 104.227 67.7109C104.773 67.8464 105.253 67.9141 105.664 67.9141C106.128 67.9141 106.458 67.8464 106.656 67.7109C106.859 67.5703 106.961 67.388 106.961 67.1641C106.961 67.0182 106.919 66.888 106.836 66.7734C106.758 66.6536 106.586 66.5208 106.32 66.375C106.055 66.224 105.638 66.0286 105.07 65.7891C104.523 65.5599 104.073 65.3281 103.719 65.0938C103.37 64.8594 103.109 64.5833 102.938 64.2656C102.771 63.9427 102.688 63.5339 102.688 63.0391C102.688 62.2318 103 61.625 103.625 61.2188C104.255 60.8073 105.096 60.6016 106.148 60.6016C106.69 60.6016 107.206 60.6562 107.695 60.7656C108.19 60.875 108.698 61.0495 109.219 61.2891L108.5 63.0078C108.068 62.8203 107.659 62.6667 107.273 62.5469C106.893 62.4271 106.505 62.3672 106.109 62.3672C105.76 62.3672 105.497 62.4141 105.32 62.5078C105.143 62.6016 105.055 62.7448 105.055 62.9375C105.055 63.0781 105.099 63.2031 105.188 63.3125C105.281 63.4219 105.458 63.5443 105.719 63.6797C105.984 63.8099 106.372 63.9792 106.883 64.1875C107.378 64.3906 107.807 64.6042 108.172 64.8281C108.536 65.0469 108.818 65.3203 109.016 65.6484C109.214 65.9714 109.312 66.3906 109.312 66.9062ZM110.836 68.3828C110.836 67.8932 110.969 67.5495 111.234 67.3516C111.505 67.1536 111.831 67.0547 112.211 67.0547C112.581 67.0547 112.898 67.1536 113.164 67.3516C113.435 67.5495 113.57 67.8932 113.57 68.3828C113.57 68.8516 113.435 69.1901 113.164 69.3984C112.898 69.6068 112.581 69.7109 112.211 69.7109C111.831 69.7109 111.505 69.6068 111.234 69.3984C110.969 69.1901 110.836 68.8516 110.836 68.3828ZM110.836 61.9297C110.836 61.4401 110.969 61.0964 111.234 60.8984C111.505 60.7005 111.831 60.6016 112.211 60.6016C112.581 60.6016 112.898 60.7005 113.164 60.8984C113.435 61.0964 113.57 61.4401 113.57 61.9297C113.57 62.4036 113.435 62.7448 113.164 62.9531C112.898 63.1562 112.581 63.2578 112.211 63.2578C111.831 63.2578 111.505 63.1562 111.234 62.9531C110.969 62.7448 110.836 62.4036 110.836 61.9297Z" fill="#222222" fill-opacity="0.5"/>
<path d="M124.547 58.0781C126.021 58.0781 127.096 58.3672 127.773 58.9453C128.456 59.5182 128.797 60.3411 128.797 61.4141C128.797 61.8984 128.716 62.3594 128.555 62.7969C128.398 63.2292 128.143 63.612 127.789 63.9453C127.435 64.2734 126.969 64.5339 126.391 64.7266C125.818 64.9141 125.115 65.0078 124.281 65.0078H122.891V69.5H121.562V58.0781H124.547ZM124.422 59.2109H122.891V63.8672H124.133C124.862 63.8672 125.469 63.7891 125.953 63.6328C126.443 63.4766 126.81 63.224 127.055 62.875C127.299 62.5208 127.422 62.0521 127.422 61.4688C127.422 60.7083 127.18 60.1432 126.695 59.7734C126.211 59.3984 125.453 59.2109 124.422 59.2109ZM138.062 60.9375V69.5H137L136.812 68.2969H136.742C136.565 68.5938 136.336 68.8438 136.055 69.0469C135.773 69.25 135.456 69.401 135.102 69.5C134.753 69.6042 134.38 69.6562 133.984 69.6562C133.307 69.6562 132.74 69.5469 132.281 69.3281C131.823 69.1094 131.477 68.7708 131.242 68.3125C131.013 67.8542 130.898 67.2656 130.898 66.5469V60.9375H132.211V66.4531C132.211 67.1667 132.372 67.7005 132.695 68.0547C133.018 68.4036 133.51 68.5781 134.172 68.5781C134.807 68.5781 135.312 68.4583 135.688 68.2188C136.068 67.9792 136.341 67.6276 136.508 67.1641C136.674 66.6953 136.758 66.1224 136.758 65.4453V60.9375H138.062ZM146.344 67.1562C146.344 67.7031 146.206 68.1641 145.93 68.5391C145.659 68.9089 145.268 69.1875 144.758 69.375C144.253 69.5625 143.648 69.6562 142.945 69.6562C142.346 69.6562 141.828 69.6094 141.391 69.5156C140.953 69.4219 140.57 69.2891 140.242 69.1172V67.9219C140.591 68.0938 141.008 68.25 141.492 68.3906C141.977 68.5312 142.471 68.6016 142.977 68.6016C143.716 68.6016 144.253 68.4818 144.586 68.2422C144.919 68.0026 145.086 67.6771 145.086 67.2656C145.086 67.0312 145.018 66.8255 144.883 66.6484C144.753 66.4661 144.531 66.2917 144.219 66.125C143.906 65.9531 143.474 65.7656 142.922 65.5625C142.375 65.3542 141.901 65.1484 141.5 64.9453C141.104 64.737 140.797 64.4844 140.578 64.1875C140.365 63.8906 140.258 63.5052 140.258 63.0312C140.258 62.3073 140.549 61.7526 141.133 61.3672C141.721 60.9766 142.492 60.7812 143.445 60.7812C143.961 60.7812 144.443 60.8333 144.891 60.9375C145.344 61.0365 145.766 61.1719 146.156 61.3438L145.719 62.3828C145.365 62.2318 144.987 62.1042 144.586 62C144.185 61.8958 143.776 61.8438 143.359 61.8438C142.76 61.8438 142.299 61.9427 141.977 62.1406C141.659 62.3385 141.5 62.6094 141.5 62.9531C141.5 63.2188 141.573 63.4375 141.719 63.6094C141.87 63.7812 142.109 63.9427 142.438 64.0938C142.766 64.2448 143.198 64.4219 143.734 64.625C144.271 64.8229 144.734 65.0286 145.125 65.2422C145.516 65.4505 145.815 65.7057 146.023 66.0078C146.237 66.3047 146.344 66.6875 146.344 67.1562ZM142.578 59.8047C142.443 59.5651 142.258 59.3021 142.023 59.0156C141.789 58.7292 141.544 58.4479 141.289 58.1719C141.039 57.8906 140.818 57.6484 140.625 57.4453V57.25H141.516C141.797 57.4427 142.086 57.6745 142.383 57.9453C142.685 58.2109 142.966 58.4896 143.227 58.7812C143.508 58.4896 143.797 58.2109 144.094 57.9453C144.391 57.6745 144.68 57.4427 144.961 57.25H145.883V57.4453C145.68 57.6484 145.448 57.8906 145.188 58.1719C144.927 58.4479 144.68 58.7292 144.445 59.0156C144.211 59.3021 144.029 59.5651 143.898 59.8047H142.578ZM147.078 60.9375H148.469L150.359 65.9062C150.469 66.1979 150.57 66.4792 150.664 66.75C150.758 67.0156 150.841 67.2708 150.914 67.5156C150.987 67.7604 151.044 67.9974 151.086 68.2266H151.141C151.214 67.9661 151.318 67.625 151.453 67.2031C151.589 66.776 151.734 66.3411 151.891 65.8984L153.68 60.9375H155.078L151.352 70.7578C151.154 71.2839 150.922 71.7422 150.656 72.1328C150.396 72.5234 150.078 72.8229 149.703 73.0312C149.328 73.2448 148.875 73.3516 148.344 73.3516C148.099 73.3516 147.883 73.3359 147.695 73.3047C147.508 73.2786 147.346 73.2474 147.211 73.2109V72.1719C147.326 72.1979 147.464 72.2214 147.625 72.2422C147.792 72.263 147.964 72.2734 148.141 72.2734C148.464 72.2734 148.742 72.2109 148.977 72.0859C149.216 71.9661 149.422 71.7891 149.594 71.5547C149.766 71.3203 149.914 71.0417 150.039 70.7188L150.508 69.5156L147.078 60.9375ZM160.5 60.7812C161.516 60.7812 162.284 61.0312 162.805 61.5312C163.326 62.026 163.586 62.8229 163.586 63.9219V69.5H162.305V64.0078C162.305 63.2943 162.141 62.7604 161.812 62.4062C161.49 62.0521 160.992 61.875 160.32 61.875C159.372 61.875 158.706 62.1432 158.32 62.6797C157.935 63.2161 157.742 63.9948 157.742 65.0156V69.5H156.445V60.9375H157.492L157.688 62.1719H157.758C157.94 61.8698 158.172 61.6172 158.453 61.4141C158.734 61.2057 159.049 61.0495 159.398 60.9453C159.747 60.8359 160.115 60.7812 160.5 60.7812ZM173.641 65.2031C173.641 65.9062 173.549 66.5339 173.367 67.0859C173.185 67.638 172.922 68.1042 172.578 68.4844C172.234 68.8646 171.818 69.1562 171.328 69.3594C170.844 69.5573 170.294 69.6562 169.68 69.6562C169.107 69.6562 168.581 69.5573 168.102 69.3594C167.628 69.1562 167.216 68.8646 166.867 68.4844C166.523 68.1042 166.255 67.638 166.062 67.0859C165.875 66.5339 165.781 65.9062 165.781 65.2031C165.781 64.2656 165.94 63.4688 166.258 62.8125C166.576 62.151 167.029 61.6484 167.617 61.3047C168.211 60.9557 168.917 60.7812 169.734 60.7812C170.516 60.7812 171.198 60.9557 171.781 61.3047C172.37 61.6536 172.826 62.1589 173.148 62.8203C173.477 63.4766 173.641 64.2708 173.641 65.2031ZM167.125 65.2031C167.125 65.8906 167.216 66.487 167.398 66.9922C167.581 67.4974 167.862 67.888 168.242 68.1641C168.622 68.4401 169.112 68.5781 169.711 68.5781C170.305 68.5781 170.792 68.4401 171.172 68.1641C171.557 67.888 171.841 67.4974 172.023 66.9922C172.206 66.487 172.297 65.8906 172.297 65.2031C172.297 64.5208 172.206 63.9323 172.023 63.4375C171.841 62.9375 171.56 62.5521 171.18 62.2812C170.799 62.0104 170.307 61.875 169.703 61.875C168.812 61.875 168.159 62.1693 167.742 62.7578C167.331 63.3464 167.125 64.1615 167.125 65.2031ZM183.242 60.7969C184.263 60.7969 185.021 61.026 185.516 61.4844C186.01 61.9427 186.258 62.6745 186.258 63.6797V69.5H185.312L185.062 68.2344H185C184.76 68.5469 184.51 68.8099 184.25 69.0234C183.99 69.2318 183.688 69.3906 183.344 69.5C183.005 69.6042 182.589 69.6562 182.094 69.6562C181.573 69.6562 181.109 69.5651 180.703 69.3828C180.302 69.2005 179.984 68.9245 179.75 68.5547C179.521 68.1849 179.406 67.7161 179.406 67.1484C179.406 66.2943 179.745 65.638 180.422 65.1797C181.099 64.7214 182.13 64.4714 183.516 64.4297L184.992 64.3672V63.8438C184.992 63.1042 184.833 62.5859 184.516 62.2891C184.198 61.9922 183.75 61.8438 183.172 61.8438C182.724 61.8438 182.297 61.9089 181.891 62.0391C181.484 62.1693 181.099 62.3229 180.734 62.5L180.336 61.5156C180.721 61.3177 181.164 61.1484 181.664 61.0078C182.164 60.8672 182.69 60.7969 183.242 60.7969ZM184.977 65.2812L183.672 65.3359C182.604 65.3776 181.852 65.5521 181.414 65.8594C180.977 66.1667 180.758 66.6016 180.758 67.1641C180.758 67.6536 180.906 68.0156 181.203 68.25C181.5 68.4844 181.893 68.6016 182.383 68.6016C183.143 68.6016 183.766 68.3906 184.25 67.9688C184.734 67.5469 184.977 66.9141 184.977 66.0703V65.2812ZM190.234 69.5H188.93V57.3438H190.234V69.5ZM196.273 60.7812C197.003 60.7812 197.628 60.9427 198.148 61.2656C198.669 61.5885 199.068 62.0417 199.344 62.625C199.62 63.2031 199.758 63.8802 199.758 64.6562V65.4609H193.844C193.859 66.4661 194.109 67.2318 194.594 67.7578C195.078 68.2839 195.76 68.5469 196.641 68.5469C197.182 68.5469 197.661 68.4974 198.078 68.3984C198.495 68.2995 198.927 68.1536 199.375 67.9609V69.1016C198.943 69.2943 198.513 69.4349 198.086 69.5234C197.664 69.612 197.164 69.6562 196.586 69.6562C195.763 69.6562 195.044 69.4896 194.43 69.1562C193.82 68.8177 193.346 68.3229 193.008 67.6719C192.669 67.0208 192.5 66.224 192.5 65.2812C192.5 64.3594 192.654 63.5625 192.961 62.8906C193.273 62.2135 193.711 61.6927 194.273 61.3281C194.841 60.9635 195.508 60.7812 196.273 60.7812ZM196.258 61.8438C195.565 61.8438 195.013 62.0703 194.602 62.5234C194.19 62.9766 193.945 63.6094 193.867 64.4219H198.398C198.393 63.9115 198.312 63.4635 198.156 63.0781C198.005 62.6875 197.773 62.3854 197.461 62.1719C197.148 61.9531 196.747 61.8438 196.258 61.8438ZM196.18 57.7344C196.393 57.7344 196.576 57.8047 196.727 57.9453C196.883 58.0807 196.961 58.2943 196.961 58.5859C196.961 58.8724 196.883 59.0859 196.727 59.2266C196.576 59.3672 196.393 59.4375 196.18 59.4375C195.956 59.4375 195.768 59.3672 195.617 59.2266C195.471 59.0859 195.398 58.8724 195.398 58.5859C195.398 58.2943 195.471 58.0807 195.617 57.9453C195.768 57.8047 195.956 57.7344 196.18 57.7344ZM200.93 73.3438C200.664 73.3438 200.432 73.3229 200.234 73.2812C200.036 73.2448 199.865 73.2005 199.719 73.1484V72.0938C199.88 72.1458 200.044 72.1849 200.211 72.2109C200.378 72.2422 200.565 72.2578 200.773 72.2578C201.128 72.2578 201.414 72.1589 201.633 71.9609C201.852 71.763 201.961 71.4036 201.961 70.8828V60.9375H203.258V70.8516C203.258 71.3724 203.174 71.8177 203.008 72.1875C202.841 72.5625 202.586 72.849 202.242 73.0469C201.898 73.2448 201.461 73.3438 200.93 73.3438ZM201.844 58.5859C201.844 58.2943 201.917 58.0807 202.062 57.9453C202.214 57.8047 202.401 57.7344 202.625 57.7344C202.839 57.7344 203.021 57.8047 203.172 57.9453C203.328 58.0807 203.406 58.2943 203.406 58.5859C203.406 58.8724 203.328 59.0859 203.172 59.2266C203.021 59.3672 202.839 59.4375 202.625 59.4375C202.401 59.4375 202.214 59.3672 202.062 59.2266C201.917 59.0859 201.844 58.8724 201.844 58.5859ZM209.211 60.7969C210.232 60.7969 210.99 61.026 211.484 61.4844C211.979 61.9427 212.227 62.6745 212.227 63.6797V69.5H211.281L211.031 68.2344H210.969C210.729 68.5469 210.479 68.8099 210.219 69.0234C209.958 69.2318 209.656 69.3906 209.312 69.5C208.974 69.6042 208.557 69.6562 208.062 69.6562C207.542 69.6562 207.078 69.5651 206.672 69.3828C206.271 69.2005 205.953 68.9245 205.719 68.5547C205.49 68.1849 205.375 67.7161 205.375 67.1484C205.375 66.2943 205.714 65.638 206.391 65.1797C207.068 64.7214 208.099 64.4714 209.484 64.4297L210.961 64.3672V63.8438C210.961 63.1042 210.802 62.5859 210.484 62.2891C210.167 61.9922 209.719 61.8438 209.141 61.8438C208.693 61.8438 208.266 61.9089 207.859 62.0391C207.453 62.1693 207.068 62.3229 206.703 62.5L206.305 61.5156C206.69 61.3177 207.133 61.1484 207.633 61.0078C208.133 60.8672 208.659 60.7969 209.211 60.7969ZM210.945 65.2812L209.641 65.3359C208.573 65.3776 207.82 65.5521 207.383 65.8594C206.945 66.1667 206.727 66.6016 206.727 67.1641C206.727 67.6536 206.875 68.0156 207.172 68.25C207.469 68.4844 207.862 68.6016 208.352 68.6016C209.112 68.6016 209.734 68.3906 210.219 67.9688C210.703 67.5469 210.945 66.9141 210.945 66.0703V65.2812ZM222.086 62.5156C222.862 62.5156 223.536 62.6484 224.109 62.9141C224.682 63.1745 225.125 63.5547 225.438 64.0547C225.755 64.5547 225.914 65.1615 225.914 65.875C225.914 66.6562 225.745 67.3307 225.406 67.8984C225.068 68.4609 224.581 68.8958 223.945 69.2031C223.31 69.5052 222.549 69.6562 221.664 69.6562C221.07 69.6562 220.518 69.6042 220.008 69.5C219.497 69.3958 219.068 69.2396 218.719 69.0312V67.7969C219.099 68.026 219.56 68.2083 220.102 68.3438C220.643 68.4792 221.169 68.5469 221.68 68.5469C222.258 68.5469 222.763 68.4557 223.195 68.2734C223.633 68.0859 223.971 67.8047 224.211 67.4297C224.456 67.0495 224.578 66.5729 224.578 66C224.578 65.2396 224.344 64.6536 223.875 64.2422C223.411 63.8255 222.677 63.6172 221.672 63.6172C221.349 63.6172 220.995 63.6432 220.609 63.6953C220.224 63.7474 219.906 63.8047 219.656 63.8672L219 63.4375L219.438 58.0781H225.117V59.2656H220.547L220.258 62.7109C220.456 62.6693 220.711 62.6276 221.023 62.5859C221.336 62.5391 221.69 62.5156 222.086 62.5156ZM234.695 60.7422C234.695 61.2526 234.596 61.6953 234.398 62.0703C234.201 62.4453 233.924 62.7526 233.57 62.9922C233.216 63.2266 232.799 63.3906 232.32 63.4844V63.5469C233.227 63.6615 233.906 63.9531 234.359 64.4219C234.818 64.8906 235.047 65.5052 235.047 66.2656C235.047 66.9271 234.891 67.513 234.578 68.0234C234.271 68.5339 233.797 68.9349 233.156 69.2266C232.521 69.513 231.706 69.6562 230.711 69.6562C230.107 69.6562 229.547 69.6068 229.031 69.5078C228.521 69.4141 228.031 69.2552 227.562 69.0312V67.8125C228.036 68.0469 228.552 68.2318 229.109 68.3672C229.667 68.4974 230.206 68.5625 230.727 68.5625C231.768 68.5625 232.521 68.3568 232.984 67.9453C233.448 67.5286 233.68 66.9609 233.68 66.2422C233.68 65.7474 233.549 65.349 233.289 65.0469C233.034 64.7396 232.664 64.5156 232.18 64.375C231.701 64.2292 231.122 64.1562 230.445 64.1562H229.305V63.0469H230.453C231.073 63.0469 231.599 62.9557 232.031 62.7734C232.464 62.5911 232.792 62.3359 233.016 62.0078C233.245 61.6745 233.359 61.2812 233.359 60.8281C233.359 60.25 233.167 59.8047 232.781 59.4922C232.396 59.1745 231.872 59.0156 231.211 59.0156C230.805 59.0156 230.435 59.0573 230.102 59.1406C229.768 59.224 229.456 59.3385 229.164 59.4844C228.872 59.6302 228.581 59.7995 228.289 59.9922L227.633 59.1016C228.049 58.7786 228.557 58.5 229.156 58.2656C229.755 58.0312 230.435 57.9141 231.195 57.9141C232.362 57.9141 233.237 58.1797 233.82 58.7109C234.404 59.2422 234.695 59.9193 234.695 60.7422ZM240.57 60.7969C241.591 60.7969 242.349 61.026 242.844 61.4844C243.339 61.9427 243.586 62.6745 243.586 63.6797V69.5H242.641L242.391 68.2344H242.328C242.089 68.5469 241.839 68.8099 241.578 69.0234C241.318 69.2318 241.016 69.3906 240.672 69.5C240.333 69.6042 239.917 69.6562 239.422 69.6562C238.901 69.6562 238.438 69.5651 238.031 69.3828C237.63 69.2005 237.312 68.9245 237.078 68.5547C236.849 68.1849 236.734 67.7161 236.734 67.1484C236.734 66.2943 237.073 65.638 237.75 65.1797C238.427 64.7214 239.458 64.4714 240.844 64.4297L242.32 64.3672V63.8438C242.32 63.1042 242.161 62.5859 241.844 62.2891C241.526 61.9922 241.078 61.8438 240.5 61.8438C240.052 61.8438 239.625 61.9089 239.219 62.0391C238.812 62.1693 238.427 62.3229 238.062 62.5L237.664 61.5156C238.049 61.3177 238.492 61.1484 238.992 61.0078C239.492 60.8672 240.018 60.7969 240.57 60.7969ZM242.305 65.2812L241 65.3359C239.932 65.3776 239.18 65.5521 238.742 65.8594C238.305 66.1667 238.086 66.6016 238.086 67.1641C238.086 67.6536 238.234 68.0156 238.531 68.25C238.828 68.4844 239.221 68.6016 239.711 68.6016C240.471 68.6016 241.094 68.3906 241.578 67.9688C242.062 67.5469 242.305 66.9141 242.305 66.0703V65.2812ZM247.742 67.6406L247.844 67.8203C247.75 68.2005 247.63 68.6068 247.484 69.0391C247.344 69.4714 247.188 69.9036 247.016 70.3359C246.849 70.7734 246.68 71.1823 246.508 71.5625H245.539C245.648 71.1458 245.755 70.7057 245.859 70.2422C245.964 69.7839 246.057 69.3307 246.141 68.8828C246.229 68.4297 246.299 68.0156 246.352 67.6406H247.742ZM257.32 68.5938C257.534 68.5938 257.753 68.5755 257.977 68.5391C258.201 68.5026 258.383 68.4583 258.523 68.4062V69.4141C258.372 69.4818 258.161 69.5391 257.891 69.5859C257.625 69.6328 257.365 69.6562 257.109 69.6562C256.656 69.6562 256.245 69.5781 255.875 69.4219C255.505 69.2604 255.208 68.9896 254.984 68.6094C254.766 68.2292 254.656 67.7031 254.656 67.0312V61.9531H253.438V61.3203L254.664 60.8125L255.18 58.9531H255.961V60.9375H258.469V61.9531H255.961V66.9922C255.961 67.5286 256.083 67.9297 256.328 68.1953C256.578 68.4609 256.909 68.5938 257.32 68.5938ZM264.148 60.7812C264.32 60.7812 264.5 60.7917 264.688 60.8125C264.875 60.8281 265.042 60.8516 265.188 60.8828L265.023 62.0859C264.883 62.0495 264.727 62.0208 264.555 62C264.383 61.9792 264.221 61.9688 264.07 61.9688C263.727 61.9688 263.401 62.0391 263.094 62.1797C262.792 62.3151 262.526 62.513 262.297 62.7734C262.068 63.0286 261.888 63.3385 261.758 63.7031C261.628 64.0625 261.562 64.4635 261.562 64.9062V69.5H260.258V60.9375H261.336L261.477 62.5156H261.531C261.708 62.1979 261.922 61.9089 262.172 61.6484C262.422 61.3828 262.711 61.1719 263.039 61.0156C263.372 60.8594 263.742 60.7812 264.148 60.7812ZM270.008 60.7969C271.029 60.7969 271.786 61.026 272.281 61.4844C272.776 61.9427 273.023 62.6745 273.023 63.6797V69.5H272.078L271.828 68.2344H271.766C271.526 68.5469 271.276 68.8099 271.016 69.0234C270.755 69.2318 270.453 69.3906 270.109 69.5C269.771 69.6042 269.354 69.6562 268.859 69.6562C268.339 69.6562 267.875 69.5651 267.469 69.3828C267.068 69.2005 266.75 68.9245 266.516 68.5547C266.286 68.1849 266.172 67.7161 266.172 67.1484C266.172 66.2943 266.51 65.638 267.188 65.1797C267.865 64.7214 268.896 64.4714 270.281 64.4297L271.758 64.3672V63.8438C271.758 63.1042 271.599 62.5859 271.281 62.2891C270.964 61.9922 270.516 61.8438 269.938 61.8438C269.49 61.8438 269.062 61.9089 268.656 62.0391C268.25 62.1693 267.865 62.3229 267.5 62.5L267.102 61.5156C267.487 61.3177 267.93 61.1484 268.43 61.0078C268.93 60.8672 269.456 60.7969 270.008 60.7969ZM271.742 65.2812L270.438 65.3359C269.37 65.3776 268.617 65.5521 268.18 65.8594C267.742 66.1667 267.523 66.6016 267.523 67.1641C267.523 67.6536 267.672 68.0156 267.969 68.25C268.266 68.4844 268.659 68.6016 269.148 68.6016C269.909 68.6016 270.531 68.3906 271.016 67.9688C271.5 67.5469 271.742 66.9141 271.742 66.0703V65.2812ZM276.984 57.3438V63.6562C276.984 63.8646 276.977 64.1198 276.961 64.4219C276.945 64.7188 276.932 64.9818 276.922 65.2109H276.977C277.086 65.0755 277.245 64.875 277.453 64.6094C277.667 64.3438 277.846 64.1302 277.992 63.9688L280.836 60.9375H282.359L278.914 64.5938L282.609 69.5H281.047L278.023 65.4453L276.984 66.3984V69.5H275.695V57.3438H276.984ZM287.305 60.7969C288.326 60.7969 289.083 61.026 289.578 61.4844C290.073 61.9427 290.32 62.6745 290.32 63.6797V69.5H289.375L289.125 68.2344H289.062C288.823 68.5469 288.573 68.8099 288.312 69.0234C288.052 69.2318 287.75 69.3906 287.406 69.5C287.068 69.6042 286.651 69.6562 286.156 69.6562C285.635 69.6562 285.172 69.5651 284.766 69.3828C284.365 69.2005 284.047 68.9245 283.812 68.5547C283.583 68.1849 283.469 67.7161 283.469 67.1484C283.469 66.2943 283.807 65.638 284.484 65.1797C285.161 64.7214 286.193 64.4714 287.578 64.4297L289.055 64.3672V63.8438C289.055 63.1042 288.896 62.5859 288.578 62.2891C288.26 61.9922 287.812 61.8438 287.234 61.8438C286.786 61.8438 286.359 61.9089 285.953 62.0391C285.547 62.1693 285.161 62.3229 284.797 62.5L284.398 61.5156C284.784 61.3177 285.227 61.1484 285.727 61.0078C286.227 60.8672 286.753 60.7969 287.305 60.7969ZM289.039 65.2812L287.734 65.3359C286.667 65.3776 285.914 65.5521 285.477 65.8594C285.039 66.1667 284.82 66.6016 284.82 67.1641C284.82 67.6536 284.969 68.0156 285.266 68.25C285.562 68.4844 285.956 68.6016 286.445 68.6016C287.206 68.6016 287.828 68.3906 288.312 67.9688C288.797 67.5469 289.039 66.9141 289.039 66.0703V65.2812ZM294.289 60.9375V69.5H292.992V60.9375H294.289ZM293.656 57.7344C293.87 57.7344 294.052 57.8047 294.203 57.9453C294.359 58.0807 294.438 58.2943 294.438 58.5859C294.438 58.8724 294.359 59.0859 294.203 59.2266C294.052 59.3672 293.87 59.4375 293.656 59.4375C293.432 59.4375 293.245 59.3672 293.094 59.2266C292.948 59.0859 292.875 58.8724 292.875 58.5859C292.875 58.2943 292.948 58.0807 293.094 57.9453C293.245 57.8047 293.432 57.7344 293.656 57.7344Z" fill="#222222" fill-opacity="0.5"/>
</g>
<g clip-path="url(#clip4_4103_550)">
<path d="M12.243 102.854L21.49 97.31C21.6454 97.2167 21.8233 97.1675 22.0045 97.1675C22.1857 97.1675 22.3636 97.2167 22.519 97.31L31.757 102.855C31.8311 102.899 31.8925 102.962 31.9351 103.037C31.9776 103.113 32 103.198 32 103.284V116C32 116.265 31.8946 116.52 31.7071 116.707C31.5196 116.895 31.2652 117 31 117H13C12.7348 117 12.4804 116.895 12.2929 116.707C12.1054 116.52 12 116.265 12 116V103.283C12 103.197 12.0224 103.112 12.0649 103.036C12.1075 102.961 12.1689 102.898 12.243 102.854ZM14 104.133V115H30V104.132L22.004 99.332L14 104.132V104.133ZM22.06 109.698L27.356 105.235L28.644 106.765L22.074 112.302L15.364 106.772L16.636 105.228L22.06 109.698Z" fill="#EB5757"/>
</g>
<path d="M54.0156 115.5H47.4375V104.078H54.0156V106.062H49.8594V108.57H53.7266V110.555H49.8594V113.5H54.0156V115.5ZM66.4766 106.602C67.4661 106.602 68.2135 106.857 68.7188 107.367C69.2292 107.872 69.4844 108.685 69.4844 109.805V115.5H67.0938V110.398C67.0938 109.773 66.987 109.302 66.7734 108.984C66.5599 108.667 66.2292 108.508 65.7812 108.508C65.151 108.508 64.7031 108.734 64.4375 109.188C64.1719 109.635 64.0391 110.279 64.0391 111.117V115.5H61.6562V110.398C61.6562 109.982 61.6094 109.633 61.5156 109.352C61.4219 109.07 61.2786 108.859 61.0859 108.719C60.8932 108.578 60.6458 108.508 60.3438 108.508C59.901 108.508 59.5521 108.62 59.2969 108.844C59.0469 109.062 58.8672 109.388 58.7578 109.82C58.6536 110.247 58.6016 110.771 58.6016 111.391V115.5H56.2188V106.766H58.0391L58.3594 107.883H58.4922C58.6693 107.581 58.8906 107.336 59.1562 107.148C59.4271 106.961 59.724 106.823 60.0469 106.734C60.3698 106.646 60.6979 106.602 61.0312 106.602C61.6719 106.602 62.2135 106.706 62.6562 106.914C63.1042 107.122 63.4479 107.445 63.6875 107.883H63.8984C64.1589 107.435 64.526 107.109 65 106.906C65.4792 106.703 65.9714 106.602 66.4766 106.602ZM75.5156 106.586C76.6875 106.586 77.5859 106.841 78.2109 107.352C78.8359 107.862 79.1484 108.638 79.1484 109.68V115.5H77.4844L77.0234 114.312H76.9609C76.7109 114.625 76.4557 114.88 76.1953 115.078C75.9349 115.276 75.6354 115.422 75.2969 115.516C74.9583 115.609 74.5469 115.656 74.0625 115.656C73.5469 115.656 73.0833 115.557 72.6719 115.359C72.2656 115.161 71.9453 114.859 71.7109 114.453C71.4766 114.042 71.3594 113.521 71.3594 112.891C71.3594 111.964 71.6849 111.281 72.3359 110.844C72.987 110.401 73.9635 110.156 75.2656 110.109L76.7812 110.062V109.68C76.7812 109.221 76.6615 108.885 76.4219 108.672C76.1823 108.458 75.849 108.352 75.4219 108.352C75 108.352 74.5859 108.411 74.1797 108.531C73.7734 108.651 73.3672 108.802 72.9609 108.984L72.1719 107.375C72.6354 107.13 73.1536 106.938 73.7266 106.797C74.3047 106.656 74.901 106.586 75.5156 106.586ZM76.7812 111.453L75.8594 111.484C75.0885 111.505 74.5521 111.643 74.25 111.898C73.9531 112.154 73.8047 112.49 73.8047 112.906C73.8047 113.271 73.9115 113.531 74.125 113.688C74.3385 113.839 74.6172 113.914 74.9609 113.914C75.4714 113.914 75.901 113.763 76.25 113.461C76.6042 113.159 76.7812 112.729 76.7812 112.172V111.453ZM83.9922 106.766V115.5H81.6094V106.766H83.9922ZM82.8047 103.344C83.1589 103.344 83.4635 103.427 83.7188 103.594C83.974 103.755 84.1016 104.06 84.1016 104.508C84.1016 104.951 83.974 105.258 83.7188 105.43C83.4635 105.596 83.1589 105.68 82.8047 105.68C82.4453 105.68 82.138 105.596 81.8828 105.43C81.6328 105.258 81.5078 104.951 81.5078 104.508C81.5078 104.06 81.6328 103.755 81.8828 103.594C82.138 103.427 82.4453 103.344 82.8047 103.344ZM88.8828 115.5H86.5V103.344H88.8828V115.5ZM91.0547 114.383C91.0547 113.893 91.1875 113.549 91.4531 113.352C91.724 113.154 92.0495 113.055 92.4297 113.055C92.7995 113.055 93.1172 113.154 93.3828 113.352C93.6536 113.549 93.7891 113.893 93.7891 114.383C93.7891 114.852 93.6536 115.19 93.3828 115.398C93.1172 115.607 92.7995 115.711 92.4297 115.711C92.0495 115.711 91.724 115.607 91.4531 115.398C91.1875 115.19 91.0547 114.852 91.0547 114.383ZM91.0547 107.93C91.0547 107.44 91.1875 107.096 91.4531 106.898C91.724 106.701 92.0495 106.602 92.4297 106.602C92.7995 106.602 93.1172 106.701 93.3828 106.898C93.6536 107.096 93.7891 107.44 93.7891 107.93C93.7891 108.404 93.6536 108.745 93.3828 108.953C93.1172 109.156 92.7995 109.258 92.4297 109.258C92.0495 109.258 91.724 109.156 91.4531 108.953C91.1875 108.745 91.0547 108.404 91.0547 107.93Z" fill="#222222" fill-opacity="0.5"/>
<path d="M105.18 107.953H103.047V115.5H101.75V107.953H100.234V107.328L101.75 106.898V106.328C101.75 105.609 101.857 105.026 102.07 104.578C102.284 104.125 102.594 103.792 103 103.578C103.406 103.365 103.901 103.258 104.484 103.258C104.812 103.258 105.112 103.286 105.383 103.344C105.659 103.401 105.901 103.466 106.109 103.539L105.773 104.562C105.596 104.505 105.396 104.453 105.172 104.406C104.953 104.354 104.729 104.328 104.5 104.328C104.005 104.328 103.638 104.49 103.398 104.812C103.164 105.13 103.047 105.63 103.047 106.312V106.938H105.18V107.953ZM110.055 106.781C110.784 106.781 111.409 106.943 111.93 107.266C112.451 107.589 112.849 108.042 113.125 108.625C113.401 109.203 113.539 109.88 113.539 110.656V111.461H107.625C107.641 112.466 107.891 113.232 108.375 113.758C108.859 114.284 109.542 114.547 110.422 114.547C110.964 114.547 111.443 114.497 111.859 114.398C112.276 114.299 112.708 114.154 113.156 113.961V115.102C112.724 115.294 112.294 115.435 111.867 115.523C111.445 115.612 110.945 115.656 110.367 115.656C109.544 115.656 108.826 115.49 108.211 115.156C107.602 114.818 107.128 114.323 106.789 113.672C106.451 113.021 106.281 112.224 106.281 111.281C106.281 110.359 106.435 109.562 106.742 108.891C107.055 108.214 107.492 107.693 108.055 107.328C108.622 106.964 109.289 106.781 110.055 106.781ZM110.039 107.844C109.346 107.844 108.794 108.07 108.383 108.523C107.971 108.977 107.727 109.609 107.648 110.422H112.18C112.174 109.911 112.094 109.464 111.938 109.078C111.786 108.688 111.555 108.385 111.242 108.172C110.93 107.953 110.529 107.844 110.039 107.844ZM121.281 113.156C121.281 113.703 121.143 114.164 120.867 114.539C120.596 114.909 120.206 115.188 119.695 115.375C119.19 115.562 118.586 115.656 117.883 115.656C117.284 115.656 116.766 115.609 116.328 115.516C115.891 115.422 115.508 115.289 115.18 115.117V113.922C115.529 114.094 115.945 114.25 116.43 114.391C116.914 114.531 117.409 114.602 117.914 114.602C118.654 114.602 119.19 114.482 119.523 114.242C119.857 114.003 120.023 113.677 120.023 113.266C120.023 113.031 119.956 112.826 119.82 112.648C119.69 112.466 119.469 112.292 119.156 112.125C118.844 111.953 118.411 111.766 117.859 111.562C117.312 111.354 116.839 111.148 116.438 110.945C116.042 110.737 115.734 110.484 115.516 110.188C115.302 109.891 115.195 109.505 115.195 109.031C115.195 108.307 115.487 107.753 116.07 107.367C116.659 106.977 117.43 106.781 118.383 106.781C118.898 106.781 119.38 106.833 119.828 106.938C120.281 107.036 120.703 107.172 121.094 107.344L120.656 108.383C120.302 108.232 119.924 108.104 119.523 108C119.122 107.896 118.714 107.844 118.297 107.844C117.698 107.844 117.237 107.943 116.914 108.141C116.596 108.339 116.438 108.609 116.438 108.953C116.438 109.219 116.51 109.438 116.656 109.609C116.807 109.781 117.047 109.943 117.375 110.094C117.703 110.245 118.135 110.422 118.672 110.625C119.208 110.823 119.672 111.029 120.062 111.242C120.453 111.451 120.753 111.706 120.961 112.008C121.174 112.305 121.281 112.688 121.281 113.156ZM126.133 114.594C126.346 114.594 126.565 114.576 126.789 114.539C127.013 114.503 127.195 114.458 127.336 114.406V115.414C127.185 115.482 126.974 115.539 126.703 115.586C126.438 115.633 126.177 115.656 125.922 115.656C125.469 115.656 125.057 115.578 124.688 115.422C124.318 115.26 124.021 114.99 123.797 114.609C123.578 114.229 123.469 113.703 123.469 113.031V107.953H122.25V107.32L123.477 106.812L123.992 104.953H124.773V106.938H127.281V107.953H124.773V112.992C124.773 113.529 124.896 113.93 125.141 114.195C125.391 114.461 125.721 114.594 126.133 114.594ZM130.367 106.938V115.5H129.07V106.938H130.367ZM129.734 103.734C129.948 103.734 130.13 103.805 130.281 103.945C130.438 104.081 130.516 104.294 130.516 104.586C130.516 104.872 130.438 105.086 130.281 105.227C130.13 105.367 129.948 105.438 129.734 105.438C129.51 105.438 129.323 105.367 129.172 105.227C129.026 105.086 128.953 104.872 128.953 104.586C128.953 104.294 129.026 104.081 129.172 103.945C129.323 103.805 129.51 103.734 129.734 103.734ZM135 115.5L131.75 106.938H133.141L135.023 112.117C135.154 112.471 135.286 112.862 135.422 113.289C135.557 113.716 135.651 114.06 135.703 114.32H135.758C135.82 114.06 135.924 113.716 136.07 113.289C136.216 112.857 136.349 112.466 136.469 112.117L138.352 106.938H139.742L136.484 115.5H135ZM144.32 106.797C145.341 106.797 146.099 107.026 146.594 107.484C147.089 107.943 147.336 108.674 147.336 109.68V115.5H146.391L146.141 114.234H146.078C145.839 114.547 145.589 114.81 145.328 115.023C145.068 115.232 144.766 115.391 144.422 115.5C144.083 115.604 143.667 115.656 143.172 115.656C142.651 115.656 142.188 115.565 141.781 115.383C141.38 115.201 141.062 114.924 140.828 114.555C140.599 114.185 140.484 113.716 140.484 113.148C140.484 112.294 140.823 111.638 141.5 111.18C142.177 110.721 143.208 110.471 144.594 110.43L146.07 110.367V109.844C146.07 109.104 145.911 108.586 145.594 108.289C145.276 107.992 144.828 107.844 144.25 107.844C143.802 107.844 143.375 107.909 142.969 108.039C142.562 108.169 142.177 108.323 141.812 108.5L141.414 107.516C141.799 107.318 142.242 107.148 142.742 107.008C143.242 106.867 143.768 106.797 144.32 106.797ZM146.055 111.281L144.75 111.336C143.682 111.378 142.93 111.552 142.492 111.859C142.055 112.167 141.836 112.602 141.836 113.164C141.836 113.654 141.984 114.016 142.281 114.25C142.578 114.484 142.971 114.602 143.461 114.602C144.221 114.602 144.844 114.391 145.328 113.969C145.812 113.547 146.055 112.914 146.055 112.07V111.281ZM151.312 115.5H150.008V103.344H151.312V115.5ZM155.352 106.938V115.5H154.055V106.938H155.352ZM154.719 103.734C154.932 103.734 155.115 103.805 155.266 103.945C155.422 104.081 155.5 104.294 155.5 104.586C155.5 104.872 155.422 105.086 155.266 105.227C155.115 105.367 154.932 105.438 154.719 105.438C154.495 105.438 154.307 105.367 154.156 105.227C154.01 105.086 153.938 104.872 153.938 104.586C153.938 104.294 154.01 104.081 154.156 103.945C154.307 103.805 154.495 103.734 154.719 103.734ZM163.641 113.156C163.641 113.703 163.503 114.164 163.227 114.539C162.956 114.909 162.565 115.188 162.055 115.375C161.549 115.562 160.945 115.656 160.242 115.656C159.643 115.656 159.125 115.609 158.688 115.516C158.25 115.422 157.867 115.289 157.539 115.117V113.922C157.888 114.094 158.305 114.25 158.789 114.391C159.273 114.531 159.768 114.602 160.273 114.602C161.013 114.602 161.549 114.482 161.883 114.242C162.216 114.003 162.383 113.677 162.383 113.266C162.383 113.031 162.315 112.826 162.18 112.648C162.049 112.466 161.828 112.292 161.516 112.125C161.203 111.953 160.771 111.766 160.219 111.562C159.672 111.354 159.198 111.148 158.797 110.945C158.401 110.737 158.094 110.484 157.875 110.188C157.661 109.891 157.555 109.505 157.555 109.031C157.555 108.307 157.846 107.753 158.43 107.367C159.018 106.977 159.789 106.781 160.742 106.781C161.258 106.781 161.74 106.833 162.188 106.938C162.641 107.036 163.062 107.172 163.453 107.344L163.016 108.383C162.661 108.232 162.284 108.104 161.883 108C161.482 107.896 161.073 107.844 160.656 107.844C160.057 107.844 159.596 107.943 159.273 108.141C158.956 108.339 158.797 108.609 158.797 108.953C158.797 109.219 158.87 109.438 159.016 109.609C159.167 109.781 159.406 109.943 159.734 110.094C160.062 110.245 160.495 110.422 161.031 110.625C161.568 110.823 162.031 111.029 162.422 111.242C162.812 111.451 163.112 111.706 163.32 112.008C163.534 112.305 163.641 112.688 163.641 113.156ZM165.531 114.688C165.531 114.323 165.62 114.065 165.797 113.914C165.974 113.758 166.19 113.68 166.445 113.68C166.711 113.68 166.935 113.758 167.117 113.914C167.299 114.065 167.391 114.323 167.391 114.688C167.391 115.047 167.299 115.31 167.117 115.477C166.935 115.638 166.711 115.719 166.445 115.719C166.19 115.719 165.974 115.638 165.797 115.477C165.62 115.31 165.531 115.047 165.531 114.688ZM177.289 115.5L175.883 111.875H171.305L169.906 115.5H168.562L173.031 104.031H174.227L178.664 115.5H177.289ZM175.484 110.695L174.148 107.094C174.117 107 174.065 106.846 173.992 106.633C173.924 106.419 173.854 106.198 173.781 105.969C173.708 105.74 173.648 105.555 173.602 105.414C173.549 105.628 173.492 105.841 173.43 106.055C173.372 106.263 173.315 106.458 173.258 106.641C173.201 106.818 173.151 106.969 173.109 107.094L171.75 110.695H175.484ZM180.25 104.078H183.484C184.911 104.078 185.984 104.292 186.703 104.719C187.422 105.146 187.781 105.872 187.781 106.898C187.781 107.341 187.695 107.74 187.523 108.094C187.357 108.443 187.112 108.732 186.789 108.961C186.466 109.19 186.068 109.349 185.594 109.438V109.516C186.094 109.594 186.536 109.737 186.922 109.945C187.307 110.154 187.609 110.445 187.828 110.82C188.047 111.195 188.156 111.672 188.156 112.25C188.156 112.953 187.992 113.547 187.664 114.031C187.341 114.516 186.883 114.883 186.289 115.133C185.695 115.378 184.992 115.5 184.18 115.5H180.25V104.078ZM181.578 108.977H183.766C184.76 108.977 185.448 108.812 185.828 108.484C186.214 108.156 186.406 107.677 186.406 107.047C186.406 106.396 186.177 105.927 185.719 105.641C185.266 105.354 184.542 105.211 183.547 105.211H181.578V108.977ZM181.578 110.094V114.367H183.953C184.969 114.367 185.688 114.169 186.109 113.773C186.531 113.372 186.742 112.833 186.742 112.156C186.742 111.724 186.646 111.354 186.453 111.047C186.266 110.74 185.958 110.505 185.531 110.344C185.109 110.177 184.544 110.094 183.836 110.094H181.578ZM195.477 105.086C194.846 105.086 194.279 105.195 193.773 105.414C193.273 105.628 192.846 105.94 192.492 106.352C192.143 106.758 191.875 107.25 191.688 107.828C191.5 108.406 191.406 109.057 191.406 109.781C191.406 110.74 191.555 111.573 191.852 112.281C192.154 112.984 192.602 113.529 193.195 113.914C193.794 114.299 194.542 114.492 195.438 114.492C195.948 114.492 196.427 114.451 196.875 114.367C197.328 114.279 197.768 114.169 198.195 114.039V115.195C197.779 115.352 197.341 115.466 196.883 115.539C196.424 115.617 195.88 115.656 195.25 115.656C194.089 115.656 193.117 115.417 192.336 114.938C191.56 114.453 190.977 113.771 190.586 112.891C190.201 112.01 190.008 110.971 190.008 109.773C190.008 108.909 190.128 108.12 190.367 107.406C190.612 106.688 190.966 106.068 191.43 105.547C191.898 105.026 192.471 104.625 193.148 104.344C193.831 104.057 194.612 103.914 195.492 103.914C196.07 103.914 196.628 103.971 197.164 104.086C197.701 104.201 198.185 104.365 198.617 104.578L198.086 105.703C197.721 105.536 197.32 105.393 196.883 105.273C196.451 105.148 195.982 105.086 195.477 105.086ZM212.539 109.797C212.539 110.292 212.482 110.776 212.367 111.25C212.258 111.719 212.089 112.143 211.859 112.523C211.63 112.898 211.344 113.198 211 113.422C210.661 113.646 210.26 113.758 209.797 113.758C209.312 113.758 208.927 113.617 208.641 113.336C208.354 113.055 208.182 112.721 208.125 112.336H208.055C207.857 112.747 207.565 113.089 207.18 113.359C206.799 113.625 206.331 113.758 205.773 113.758C204.961 113.758 204.333 113.49 203.891 112.953C203.453 112.411 203.234 111.693 203.234 110.797C203.234 110.099 203.372 109.482 203.648 108.945C203.93 108.404 204.323 107.979 204.828 107.672C205.339 107.359 205.94 107.203 206.633 107.203C207.096 107.203 207.547 107.242 207.984 107.32C208.422 107.398 208.771 107.484 209.031 107.578L208.875 110.727C208.87 110.919 208.865 111.068 208.859 111.172C208.854 111.271 208.852 111.349 208.852 111.406C208.852 111.969 208.951 112.349 209.148 112.547C209.352 112.74 209.596 112.836 209.883 112.836C210.232 112.836 210.523 112.701 210.758 112.43C210.997 112.154 211.18 111.786 211.305 111.328C211.43 110.865 211.492 110.352 211.492 109.789C211.492 108.794 211.292 107.945 210.891 107.242C210.49 106.539 209.935 106.003 209.227 105.633C208.523 105.263 207.714 105.078 206.797 105.078C205.885 105.078 205.076 105.221 204.367 105.508C203.664 105.794 203.068 106.201 202.578 106.727C202.094 107.247 201.727 107.867 201.477 108.586C201.227 109.305 201.102 110.099 201.102 110.969C201.102 112.031 201.289 112.935 201.664 113.68C202.044 114.424 202.599 114.992 203.328 115.383C204.062 115.768 204.956 115.961 206.008 115.961C206.643 115.961 207.255 115.891 207.844 115.75C208.432 115.609 208.958 115.451 209.422 115.273V116.289C208.964 116.482 208.451 116.638 207.883 116.758C207.315 116.883 206.69 116.945 206.008 116.945C204.753 116.945 203.68 116.708 202.789 116.234C201.898 115.766 201.216 115.089 200.742 114.203C200.268 113.318 200.031 112.255 200.031 111.016C200.031 110.01 200.185 109.086 200.492 108.242C200.805 107.398 201.253 106.667 201.836 106.047C202.424 105.427 203.135 104.948 203.969 104.609C204.807 104.266 205.75 104.094 206.797 104.094C207.917 104.094 208.906 104.326 209.766 104.789C210.63 105.247 211.307 105.904 211.797 106.758C212.292 107.607 212.539 108.62 212.539 109.797ZM204.398 110.828C204.398 111.521 204.536 112.029 204.812 112.352C205.089 112.674 205.471 112.836 205.961 112.836C206.565 112.836 207.008 112.609 207.289 112.156C207.576 111.703 207.74 111.104 207.781 110.359L207.875 108.32C207.724 108.273 207.539 108.234 207.32 108.203C207.107 108.167 206.883 108.148 206.648 108.148C206.112 108.148 205.677 108.276 205.344 108.531C205.016 108.786 204.776 109.117 204.625 109.523C204.474 109.93 204.398 110.365 204.398 110.828ZM216.117 106.938V115.5H214.82V106.938H216.117ZM215.484 103.734C215.698 103.734 215.88 103.805 216.031 103.945C216.188 104.081 216.266 104.294 216.266 104.586C216.266 104.872 216.188 105.086 216.031 105.227C215.88 105.367 215.698 105.438 215.484 105.438C215.26 105.438 215.073 105.367 214.922 105.227C214.776 105.086 214.703 104.872 214.703 104.586C214.703 104.294 214.776 104.081 214.922 103.945C215.073 103.805 215.26 103.734 215.484 103.734ZM222.922 106.781C223.938 106.781 224.706 107.031 225.227 107.531C225.747 108.026 226.008 108.823 226.008 109.922V115.5H224.727V110.008C224.727 109.294 224.562 108.76 224.234 108.406C223.911 108.052 223.414 107.875 222.742 107.875C221.794 107.875 221.128 108.143 220.742 108.68C220.357 109.216 220.164 109.995 220.164 111.016V115.5H218.867V106.938H219.914L220.109 108.172H220.18C220.362 107.87 220.594 107.617 220.875 107.414C221.156 107.206 221.471 107.049 221.82 106.945C222.169 106.836 222.536 106.781 222.922 106.781ZM232.492 107.953H230.359V115.5H229.062V107.953H227.547V107.328L229.062 106.898V106.328C229.062 105.609 229.169 105.026 229.383 104.578C229.596 104.125 229.906 103.792 230.312 103.578C230.719 103.365 231.214 103.258 231.797 103.258C232.125 103.258 232.424 103.286 232.695 103.344C232.971 103.401 233.214 103.466 233.422 103.539L233.086 104.562C232.909 104.505 232.708 104.453 232.484 104.406C232.266 104.354 232.042 104.328 231.812 104.328C231.318 104.328 230.951 104.49 230.711 104.812C230.477 105.13 230.359 105.63 230.359 106.312V106.938H232.492V107.953ZM241.453 111.203C241.453 111.906 241.362 112.534 241.18 113.086C240.997 113.638 240.734 114.104 240.391 114.484C240.047 114.865 239.63 115.156 239.141 115.359C238.656 115.557 238.107 115.656 237.492 115.656C236.919 115.656 236.393 115.557 235.914 115.359C235.44 115.156 235.029 114.865 234.68 114.484C234.336 114.104 234.068 113.638 233.875 113.086C233.688 112.534 233.594 111.906 233.594 111.203C233.594 110.266 233.753 109.469 234.07 108.812C234.388 108.151 234.841 107.648 235.43 107.305C236.023 106.956 236.729 106.781 237.547 106.781C238.328 106.781 239.01 106.956 239.594 107.305C240.182 107.654 240.638 108.159 240.961 108.82C241.289 109.477 241.453 110.271 241.453 111.203ZM234.938 111.203C234.938 111.891 235.029 112.487 235.211 112.992C235.393 113.497 235.674 113.888 236.055 114.164C236.435 114.44 236.924 114.578 237.523 114.578C238.117 114.578 238.604 114.44 238.984 114.164C239.37 113.888 239.654 113.497 239.836 112.992C240.018 112.487 240.109 111.891 240.109 111.203C240.109 110.521 240.018 109.932 239.836 109.438C239.654 108.938 239.372 108.552 238.992 108.281C238.612 108.01 238.12 107.875 237.516 107.875C236.625 107.875 235.971 108.169 235.555 108.758C235.143 109.346 234.938 110.161 234.938 111.203ZM243.5 114.688C243.5 114.323 243.589 114.065 243.766 113.914C243.943 113.758 244.159 113.68 244.414 113.68C244.68 113.68 244.904 113.758 245.086 113.914C245.268 114.065 245.359 114.323 245.359 114.688C245.359 115.047 245.268 115.31 245.086 115.477C244.904 115.638 244.68 115.719 244.414 115.719C244.159 115.719 243.943 115.638 243.766 115.477C243.589 115.31 243.5 115.047 243.5 114.688ZM249.203 115.5H247.898V103.344H249.203V115.5ZM254.711 114.594C254.924 114.594 255.143 114.576 255.367 114.539C255.591 114.503 255.773 114.458 255.914 114.406V115.414C255.763 115.482 255.552 115.539 255.281 115.586C255.016 115.633 254.755 115.656 254.5 115.656C254.047 115.656 253.635 115.578 253.266 115.422C252.896 115.26 252.599 114.99 252.375 114.609C252.156 114.229 252.047 113.703 252.047 113.031V107.953H250.828V107.32L252.055 106.812L252.57 104.953H253.352V106.938H255.859V107.953H253.352V112.992C253.352 113.529 253.474 113.93 253.719 114.195C253.969 114.461 254.299 114.594 254.711 114.594Z" fill="#222222" fill-opacity="0.5"/>
<defs>
<clipPath id="clip0_4103_550">
<rect width="24" height="24" fill="white" transform="translate(10 4)"/>
</clipPath>
<clipPath id="clip1_4103_550">
<rect width="170" height="23" fill="white" transform="translate(46 5.5)"/>
</clipPath>
<clipPath id="clip2_4103_550">
<rect width="24" height="24" fill="white" transform="translate(10 50)"/>
</clipPath>
<clipPath id="clip3_4103_550">
<rect width="250" height="23" fill="white" transform="translate(46 51.5)"/>
</clipPath>
<clipPath id="clip4_4103_550">
<rect width="24" height="24" fill="white" transform="translate(10 96)"/>
</clipPath>
</defs>
</svg>
